<?xml version="1.0" encoding="UTF-8" standalone="no"?><!DOCTYPE svg PUBLIC "-//W3C//DTD SVG 1.1//EN" "http://www.w3.org/Graphics/SVG/1.1/DTD/svg11.dtd"><svg width="100%" height="100%" viewBox="0 0 40 40" version="1.1" xmlns="http://www.w3.org/2000/svg" xmlns:xlink="http://www.w3.org/1999/xlink" xml:space="preserve" xmlns:serif="http://www.serif.com/" style="fill-rule:evenodd;clip-rule:evenodd;stroke-linejoin:round;stroke-miterlimit:1.41421;"><rect id="rmany-ig" x="0" y="0" width="40" height="40" style="fill:none;"/><clipPath id="_clip1"><rect x="0" y="0" width="40" height="40"/></clipPath><g clip-path="url(#_clip1)"><circle cx="20" cy="20" r="20.021" style="fill:#5C6569;"/><path d="M28.216,8.947c1.562,0.001 2.838,1.156 2.838,2.837l0,16.434c0,1.681 -1.276,2.836 -2.838,2.836l-16.432,0c-1.562,0 -2.837,-1.155 -2.837,-2.836l0,-16.434c0,-1.681 1.275,-2.836 2.837,-2.837l16.432,0Zm-0.54,19.566c0.483,-0.001 0.879,-0.396 0.879,-0.878l0,-9.34l-1.946,0c0.183,0.601 0.284,1.238 0.284,1.898c0,3.677 -3.077,6.656 -6.871,6.656c-3.796,0 -6.873,-2.979 -6.873,-6.656c0,-0.66 0.101,-1.297 0.285,-1.898l-2.031,0l0,9.34c0,0.482 0.396,0.878 0.878,0.878l15.395,0Zm-3.215,-8.56c0,2.375 -1.988,4.301 -4.439,4.301c-2.452,0 -4.441,-1.926 -4.441,-4.301c0,-2.377 1.989,-4.302 4.441,-4.302c2.451,0 4.439,1.925 4.439,4.302Zm3.088,-4.177c0.549,0 0.995,-0.448 0.995,-0.995l0,-2.383c0,-0.548 -0.446,-0.995 -0.995,-0.995l-2.498,0c-0.548,0 -0.995,0.447 -0.995,0.995l0,2.383c0,0.547 0.447,0.995 0.995,0.995l2.498,0Z" style="fill:#BEC0C1;"/></g></svg>