<?xml version="1.0" encoding="UTF-8" standalone="no"?><!DOCTYPE svg PUBLIC "-//W3C//DTD SVG 1.1//EN" "http://www.w3.org/Graphics/SVG/1.1/DTD/svg11.dtd"><svg width="100%" height="100%" viewBox="0 0 40 40" version="1.1" xmlns="http://www.w3.org/2000/svg" xmlns:xlink="http://www.w3.org/1999/xlink" xml:space="preserve" xmlns:serif="http://www.serif.com/" style="fill-rule:evenodd;clip-rule:evenodd;stroke-linejoin:round;stroke-miterlimit:1.41421;"><rect id="rmany-tw" x="0" y="0" width="40" height="40" style="fill:none;"/><clipPath id="_clip1"><rect x="0" y="0" width="40" height="40"/></clipPath><g clip-path="url(#_clip1)"><circle cx="20" cy="20" r="20.021" style="fill:#07a0e9;"/><path d="M29.675,15.733c0.008,0.189 0.012,0.379 0.012,0.569c0,6.835 -5.201,13.904 -13.905,13.904c-2.659,0 -5.251,-0.76 -7.49,-2.197c-0.048,-0.028 -0.067,-0.086 -0.048,-0.139c0.019,-0.051 0.072,-0.083 0.125,-0.078c0.377,0.046 0.76,0.067 1.143,0.067c2.069,0 4.028,-0.639 5.685,-1.854c-1.986,-0.167 -3.694,-1.512 -4.307,-3.429c-0.013,-0.04 -0.004,-0.085 0.024,-0.115c0.027,-0.032 0.07,-0.046 0.11,-0.038c0.551,0.103 1.111,0.111 1.651,0.023c-2.049,-0.636 -3.489,-2.555 -3.489,-4.741l0,-0.063c0.001,-0.042 0.023,-0.08 0.06,-0.101c0.035,-0.021 0.08,-0.021 0.116,0c0.533,0.296 1.125,0.486 1.732,0.559c-1.178,-0.938 -1.868,-2.361 -1.868,-3.882c0,-0.878 0.231,-1.741 0.671,-2.496c0.021,-0.033 0.054,-0.056 0.093,-0.059c0.039,-0.003 0.076,0.013 0.102,0.043c2.409,2.958 5.954,4.777 9.746,5.012c-0.064,-0.318 -0.096,-0.648 -0.096,-0.979c0,-2.736 2.227,-4.963 4.963,-4.963c1.346,0 2.647,0.553 3.579,1.52c1.05,-0.214 2.051,-0.601 2.975,-1.149c0.043,-0.026 0.096,-0.021 0.134,0.009c0.039,0.031 0.055,0.082 0.039,0.13c-0.313,0.98 -0.924,1.833 -1.745,2.45c0.773,-0.134 1.524,-0.361 2.237,-0.677c0.048,-0.023 0.104,-0.008 0.139,0.032c0.034,0.04 0.037,0.099 0.007,0.142c-0.649,0.973 -1.455,1.814 -2.395,2.5Z" style="fill:#fff;"/></g></svg>